# xmcd
#
# Track frame offsets: 
#        150
#        18330
#        37206
#        51441
#        73781
#        94852
#        104930
#        124011
#        126346
#        142524
#        164077
#        173783
#        191741
#
# Disc length: 3130 seconds
#
# Revision: 0
# Processed by: cddbd v1.5.2PL0 Copyright (c) Steve Scherf et al.
# Submitted via: ExactAudioCopy v1.2
#
DISCID=c60c380d
DTITLE=Paul Oscher - Cool Cat
DYEAR=2018
DGENRE=Blues
TTITLE0=Money Makin Woman
TTITLE1=Blues and Trouble
TTITLE2=Hide out Baby
TTITLE3=Work That Stuff
TTITLE4=Rollin and Tumblin
TTITLE5=Cool Cat (R&b) Prologue
TTITLE6=Cool Cat ( Jazz Quartet)
TTITLE7=Mississippi Poem (feat. Russell Lee)
TTITLE8=Ain't That a Man (Dedicated to Mr. Cotton) (feat. Russell Lee)
TTITLE9=Dirty Dealin Mama (feat. Miss Lavelle White)
TTITLE10=On the Edge (Jazz Quartet)
TTITLE11=Poor Man Blues (feat. Russell Lee)
TTITLE12=Cool Cat (R&b) Long Version
EXTD=
EXTT0=
EXTT1=
EXTT2=
EXTT3=
EXTT4=
EXTT5=
EXTT6=
EXTT7=
EXTT8=
EXTT9=
EXTT10=
EXTT11=
EXTT12=
PLAYORDER=
